<svg xmlns="http://www.w3.org/2000/svg" viewBox="0 0 1080 1080"><defs><style>.cls-1{fill:#fafffd;}</style></defs><title>logo-alone</title><g id="Layer_2" data-name="Layer 2"><rect class="cls-1" x="574.28" y="540" width="68.57" height="68.57"/><rect class="cls-1" x="574.28" y="471.43" width="68.57" height="68.57"/><rect class="cls-1" x="574.28" y="334.3" width="68.57" height="68.57"/><rect class="cls-1" x="574.28" y="402.87" width="68.57" height="68.57"/><rect class="cls-1" x="642.85" y="608.57" width="68.57" height="68.57"/><rect class="cls-1" x="574.28" y="608.57" width="68.57" height="68.57"/><rect class="cls-1" x="505.72" y="540" width="68.57" height="68.57"/><rect class="cls-1" x="505.72" y="471.43" width="68.57" height="68.57"/><rect class="cls-1" x="505.72" y="334.3" width="68.57" height="68.57"/><rect class="cls-1" x="505.72" y="402.87" width="68.57" height="68.57"/><rect class="cls-1" x="642.85" y="540" width="68.57" height="68.57"/><rect class="cls-1" x="642.85" y="471.43" width="68.57" height="68.57"/><rect class="cls-1" x="711.41" y="608.57" width="68.57" height="68.57"/><rect class="cls-1" x="848.54" y="540" width="68.57" height="68.57"/><rect class="cls-1" x="848.54" y="608.57" width="68.57" height="68.57"/><rect class="cls-1" x="848.54" y="471.43" width="68.57" height="68.57"/><rect class="cls-1" x="779.98" y="608.57" width="68.57" height="68.57"/><rect class="cls-1" x="779.98" y="540" width="68.57" height="68.57"/><rect class="cls-1" x="917.11" y="540" width="68.57" height="68.57"/><rect class="cls-1" x="985.67" y="471.43" width="68.57" height="68.57"/><rect class="cls-1" x="917.11" y="471.43" width="68.57" height="68.57"/><rect class="cls-1" x="779.98" y="471.43" width="68.57" height="68.57"/><rect class="cls-1" x="711.41" y="540" width="68.57" height="68.57"/><rect class="cls-1" x="711.41" y="471.43" width="68.57" height="68.57"/><rect class="cls-1" x="711.41" y="402.87" width="68.57" height="68.57"/><rect class="cls-1" x="985.67" y="402.87" width="68.57" height="68.57"/><rect class="cls-1" x="642.85" y="402.87" width="68.57" height="68.57"/><rect class="cls-1" x="642.85" y="677.13" width="68.57" height="68.57" transform="translate(1354.26 1422.83) rotate(180)"/><rect class="cls-1" x="711.41" y="677.13" width="68.57" height="68.57" transform="translate(1491.39 1422.83) rotate(180)"/><rect class="cls-1" x="437.15" y="540" width="68.57" height="68.57" transform="translate(942.87 1148.57) rotate(180)"/><rect class="cls-1" x="437.15" y="471.43" width="68.57" height="68.57" transform="translate(942.87 1011.43) rotate(180)"/><rect class="cls-1" x="437.15" y="334.3" width="68.57" height="68.57" transform="translate(942.87 737.17) rotate(180)"/><rect class="cls-1" x="437.15" y="402.87" width="68.57" height="68.57" transform="translate(942.87 874.3) rotate(180)"/><rect class="cls-1" x="437.15" y="608.57" width="68.57" height="68.57" transform="translate(942.87 1285.7) rotate(180)"/><rect class="cls-1" x="368.59" y="608.57" width="68.57" height="68.57" transform="translate(805.74 1285.7) rotate(180)"/><rect class="cls-1" x="368.59" y="540" width="68.57" height="68.57" transform="translate(805.74 1148.57) rotate(180)"/><rect class="cls-1" x="368.59" y="471.43" width="68.57" height="68.57" transform="translate(805.74 1011.43) rotate(180)"/><rect class="cls-1" x="300.02" y="608.57" width="68.57" height="68.57" transform="translate(668.61 1285.7) rotate(180)"/><rect class="cls-1" x="162.89" y="540" width="68.57" height="68.57" transform="translate(394.35 1148.57) rotate(180)"/><rect class="cls-1" x="162.89" y="608.57" width="68.57" height="68.57" transform="translate(394.35 1285.7) rotate(180)"/><rect class="cls-1" x="162.89" y="471.43" width="68.57" height="68.57" transform="translate(394.35 1011.43) rotate(180)"/><rect class="cls-1" x="231.46" y="608.57" width="68.57" height="68.57" transform="translate(531.48 1285.7) rotate(180)"/><rect class="cls-1" x="231.46" y="540" width="68.57" height="68.57" transform="translate(531.48 1148.57) rotate(180)"/><rect class="cls-1" x="94.33" y="540" width="68.57" height="68.57" transform="translate(257.22 1148.57) rotate(180)"/><rect class="cls-1" x="25.76" y="471.43" width="68.57" height="68.57" transform="translate(120.09 1011.43) rotate(180)"/><rect class="cls-1" x="94.33" y="471.43" width="68.57" height="68.57" transform="translate(257.22 1011.43) rotate(180)"/><rect class="cls-1" x="231.46" y="471.43" width="68.57" height="68.57" transform="translate(531.48 1011.43) rotate(180)"/><rect class="cls-1" x="300.02" y="540" width="68.57" height="68.57" transform="translate(668.61 1148.57) rotate(180)"/><rect class="cls-1" x="300.02" y="471.43" width="68.57" height="68.57" transform="translate(668.61 1011.43) rotate(180)"/><rect class="cls-1" x="300.02" y="402.87" width="68.57" height="68.57" transform="translate(668.61 874.3) rotate(180)"/><rect class="cls-1" x="25.76" y="402.87" width="68.57" height="68.57" transform="translate(120.09 874.3) rotate(180)"/><rect class="cls-1" x="368.59" y="402.87" width="68.57" height="68.57" transform="translate(805.74 874.3) rotate(180)"/><rect class="cls-1" x="368.59" y="677.13" width="68.57" height="68.57"/><rect class="cls-1" x="300.02" y="677.13" width="68.57" height="68.57"/></g></svg>